<?xml version="1.0" encoding="UTF-8" standalone="no"?>
<!-- Created with Inkscape (http://www.inkscape.org/) -->

<svg
   xmlns:dc="http://purl.org/dc/elements/1.1/"
   xmlns:cc="http://creativecommons.org/ns#"
   xmlns:rdf="http://www.w3.org/1999/02/22-rdf-syntax-ns#"
   xmlns:svg="http://www.w3.org/2000/svg"
   xmlns="http://www.w3.org/2000/svg"
   xmlns:sodipodi="http://sodipodi.sourceforge.net/DTD/sodipodi-0.dtd"
   xmlns:inkscape="http://www.inkscape.org/namespaces/inkscape"
   version="1.1"
   id="svg815"
   xml:space="preserve"
   width="180.026"
   height="180.026"
   viewBox="0 0 180.026 180.026"
   sodipodi:docname="icon_irina_new.svg"
   inkscape:version="0.92.3 (2405546, 2018-03-11)"
   inkscape:export-filename="D:\Development\irinanilopilkku\OpenShift_git\irinan\img\icon_irina_new.png"
   inkscape:export-xdpi="33.891544"
   inkscape:export-ydpi="33.891544"><metadata
     id="metadata821"><rdf:RDF><cc:Work
         rdf:about=""><dc:format>image/svg+xml</dc:format><dc:type
           rdf:resource="http://purl.org/dc/dcmitype/StillImage" /><dc:title /></cc:Work></rdf:RDF></metadata><defs
     id="defs819" /><sodipodi:namedview
     pagecolor="#ffffff"
     bordercolor="#666666"
     borderopacity="1"
     objecttolerance="10"
     gridtolerance="10"
     guidetolerance="10"
     inkscape:pageopacity="0"
     inkscape:pageshadow="2"
     inkscape:window-width="1920"
     inkscape:window-height="1003"
     id="namedview817"
     showgrid="false"
     inkscape:zoom="2"
     inkscape:cx="-8.881021"
     inkscape:cy="52.838993"
     inkscape:window-x="-9"
     inkscape:window-y="-9"
     inkscape:window-maximized="1"
     inkscape:current-layer="g823" /><g
     id="g823"
     inkscape:groupmode="layer"
     inkscape:label="Irinan ilopilkku logo"
     transform="matrix(1.3333333,0,0,-1.3333333,0,180.02601)"><g
       id="g837"
       transform="translate(-155.40865,-81.575337)"><path
         inkscape:connector-curvature="0"
         id="path855"
         style="fill:#e1547a;fill-opacity:1;fill-rule:evenodd;stroke:none"
         d="m 217.61253,94.377961 c -0.65381,2.621145 -1.86261,5.351086 -2.8489,7.270699 -0.89319,1.73763 -1.88,3.42552 -2.95606,5.05623 l -0.39064,0.59198 -0.009,-0.70919 c -0.0287,-2.1767 -0.22021,-4.34819 -0.57283,-6.49633 -0.7507,-4.586136 -2.11042,-9.171792 -3.86603,-13.471887 -0.32779,-0.800495 -0.66955,-1.595199 -1.02512,-2.383746 -0.45408,-1.010257 -0.77055,-1.636551 -1.30465,-2.660372 0.86019,0.221442 1.39382,0.368671 2.16318,0.717976 0.59418,0.269621 1.16897,0.58008 1.72023,0.929148 0.91684,0.58238 1.7864,1.236038 2.60062,1.954915 0.6701,0.586126 1.31433,1.201168 1.93089,1.843376 1.79666,1.875816 3.39142,3.893583 4.8216,6.061266 -0.065,0.436262 -0.15278,0.86883 -0.26293,1.295935 z" /><path
         inkscape:connector-curvature="0"
         id="path857"
         style="fill:#e1547a;fill-opacity:1;fill-rule:evenodd;stroke:none"
         d="m 272.13039,201.41767 c 0.0955,0.44885 0.17884,0.9002 0.24988,1.35357 0.0746,0.45968 0.11243,0.7906 0.14286,1.25984 -0.25251,0.46107 -0.52024,0.91365 -0.80274,1.35699 -1.51364,2.3884 -3.31228,4.68661 -5.23318,6.76938 -1.27838,1.38669 -2.63451,2.69965 -4.06183,3.9325 l -0.58488,0.5052 c 0.43997,-1.38095 0.64625,-2.04218 0.97968,-3.34558 1.1658,-4.55715 1.92707,-9.27337 2.17754,-13.9686 0.15145,-2.83892 0.10361,-5.5745 -0.18104,-8.37169 -0.18067,-1.77985 -0.47652,-3.54611 -0.88568,-5.28769 -0.48386,-2.06157 -1.10074,-3.86642 -1.94335,-5.8142 l 0.3917,-0.12741 c 1.56365,2.47438 3.02113,5.01428 4.36847,7.61279 2.18887,4.22742 4.39173,9.44179 5.38257,14.1249 z" /><path
         inkscape:connector-curvature="0"
         id="path859"
         style="fill:#6b5c9e;fill-opacity:1;fill-rule:evenodd;stroke:none"
         d="m 206.13463,157.03511 c -35.51716,20.23232 -41.26233,36.90173 -41.26233,36.90173 -11.0791,-46.37764 18.25699,-60.73989 18.25699,-60.73989 32.14167,-21.24601 34.58023,-40.385267 34.58023,-40.385267 23.70285,43.552597 -11.57489,64.223427 -11.57489,64.223427 z" /><path
         inkscape:connector-curvature="0"
         id="path861"
         style="fill:#6b5c9e;fill-opacity:1;fill-rule:evenodd;stroke:none"
         d="m 272.27877,204.41866 c 0,0 -0.73788,-18.50681 -30.34979,-49.5957 0,0 -29.23853,-31.46106 7.77254,-68.105151 0,0 -3.3326,19.987661 22.57725,51.079171 0,0 25.16804,23.31767 0,66.62168 z" /><path
         inkscape:connector-curvature="0"
         id="path863"
         style="fill:#6b5c9e;fill-opacity:1;fill-rule:evenodd;stroke:none"
         d="m 241.69734,199.44128 c 0,-7.56564 -6.13422,-13.69992 -13.6986,-13.69992 -7.5669,0 -13.69986,6.13428 -13.69986,13.69992 0,7.56564 6.13296,13.69986 13.69986,13.69986 7.56438,0 13.6986,-6.13422 13.6986,-13.69986 z" /></g></g></svg>