<?xml version="1.0" encoding="UTF-8" standalone="no"?>
<!-- Created with Inkscape (http://www.inkscape.org/) -->

<svg
   xmlns:dc="http://purl.org/dc/elements/1.1/"
   xmlns:cc="http://creativecommons.org/ns#"
   xmlns:rdf="http://www.w3.org/1999/02/22-rdf-syntax-ns#"
   xmlns:svg="http://www.w3.org/2000/svg"
   xmlns="http://www.w3.org/2000/svg"
   xmlns:sodipodi="http://sodipodi.sourceforge.net/DTD/sodipodi-0.dtd"
   xmlns:inkscape="http://www.inkscape.org/namespaces/inkscape"
   version="1.1"
   id="svg815"
   xml:space="preserve"
   width="377.95276"
   height="288.79352"
   viewBox="0 0 377.95276 288.79352"
   sodipodi:docname="Irinan ilopilkku logo.svg"
   inkscape:version="0.92.3 (2405546, 2018-03-11)"><metadata
     id="metadata821"><rdf:RDF><cc:Work
         rdf:about=""><dc:format>image/svg+xml</dc:format><dc:type
           rdf:resource="http://purl.org/dc/dcmitype/StillImage" /><dc:title></dc:title></cc:Work></rdf:RDF></metadata><defs
     id="defs819" /><sodipodi:namedview
     pagecolor="#ffffff"
     bordercolor="#666666"
     borderopacity="1"
     objecttolerance="10"
     gridtolerance="10"
     guidetolerance="10"
     inkscape:pageopacity="0"
     inkscape:pageshadow="2"
     inkscape:window-width="1738"
     inkscape:window-height="893"
     id="namedview817"
     showgrid="false"
     inkscape:zoom="2.8047721"
     inkscape:cx="188.97638"
     inkscape:cy="144.39676"
     inkscape:window-x="18"
     inkscape:window-y="0"
     inkscape:window-maximized="0"
     inkscape:current-layer="g823" /><g
     id="g823"
     inkscape:groupmode="layer"
     inkscape:label="Irinan ilopilkku logo"
     transform="matrix(1.3333333,0,0,-1.3333333,0,288.79353)"><path
       d="m 0,85.760863 c 0.053588,-1.079463 0.428708,-1.853417 1.125361,-2.321864 0.696652,-0.468445 1.393306,-0.753586 2.08996,-0.855423 0.696652,-0.101835 1.071774,-0.14257 1.125363,-0.122204 v 50.242248 c -0.053589,1.07933 -0.428711,1.8532 -1.125363,2.32159 -0.696654,0.46839 -1.393308,0.7535 -2.08996,0.85532 C 0.428708,135.98236 0.053588,136.02309 0,136.00272 Z"
       style="fill:#e1547a;fill-opacity:1;fill-rule:evenodd;stroke:none"
       id="path825"
       inkscape:connector-curvature="0" /><path
       d="m 36.366116,112.08677 c 1.324949,2.83781 1.468839,5.05164 0.431675,6.6415 -1.037166,1.58987 -3.104967,2.39795 -6.203403,2.42425 -1.95947,-0.0687 -3.838548,-0.34375 -5.637235,-0.82501 -1.798686,-0.48126 -3.470376,-0.75626 -5.015069,-0.82501 -0.579937,-0.003 -1.141165,0.0781 -1.683686,0.24375 -0.542522,0.16563 -1.17858,0.43438 -1.908177,0.80626 V 85.98642 c 0.05081,-1.079645 0.406486,-1.853729 1.067027,-2.322254 0.660541,-0.468525 1.321083,-0.753713 1.981624,-0.855567 0.660541,-0.101852 1.016217,-0.142593 1.067029,-0.122224 v 32.475435 c 0.939075,0.4922 2.173466,0.87658 3.703175,1.15315 1.529708,0.27656 3.120354,0.41719 4.77194,0.42188 1.974363,0.0359 3.671518,-0.27969 5.091465,-0.94689 1.419946,-0.6672 2.197824,-1.90159 2.333635,-3.70318 z"
       style="fill:#e1547a;fill-opacity:1;fill-rule:evenodd;stroke:none"
       id="path827"
       inkscape:connector-curvature="0" /><path
       d="m 43.425586,85.985614 c 0.05081,-1.07938 0.406486,-1.853275 1.067028,-2.321686 0.660541,-0.468411 1.321082,-0.75353 1.981624,-0.855359 0.660541,-0.101827 1.016217,-0.142559 1.067029,-0.122194 v 34.791975 c -0.0425,1.03217 -0.364915,1.78384 -0.967254,2.25502 -0.60234,0.47117 -1.229624,0.76739 -1.881851,0.88865 -0.652227,0.12125 -1.074419,0.17309 -1.266576,0.1555 z m -0.300004,43.649626 c 0.0063,-0.23707 0.08744,-0.45543 0.243541,-0.65507 0.156095,-0.19964 0.349521,-0.3057 0.580277,-0.31817 h 3.891871 v 4.11756 c 0.0078,0.24019 -0.04529,0.47103 -0.159228,0.69251 -0.113942,0.22148 -0.335472,0.34002 -0.664593,0.35562 h -3.891868 z"
       style="fill:#e1547a;fill-opacity:1;fill-rule:evenodd;stroke:none"
       id="path829"
       inkscape:connector-curvature="0" /><path
       d="m 82.876119,85.98642 c 0.05081,-1.079645 0.406486,-1.853729 1.067027,-2.322254 0.660542,-0.468525 1.321083,-0.753713 1.981624,-0.855567 0.660542,-0.101852 1.016217,-0.142593 1.06703,-0.122224 v 27.675375 c -0.04294,2.80005 -0.697828,4.98757 -1.964673,6.56255 -1.266845,1.57498 -2.888029,2.67934 -4.863551,3.31308 -1.975523,0.63375 -4.047769,0.93879 -6.216737,0.91514 -2.291784,-0.0687 -4.367707,-0.34375 -6.227773,-0.82501 -1.860065,-0.48126 -3.710365,-0.75626 -5.5509,-0.82501 -0.289969,-0.0125 -0.701538,0.05 -1.234705,0.1875 -0.533166,0.1375 -1.244056,0.42501 -2.132667,0.86251 V 85.98642 c 0.05081,-1.079645 0.406486,-1.853729 1.067027,-2.322254 0.660542,-0.468525 1.321083,-0.753713 1.981624,-0.855567 0.660541,-0.101852 1.016217,-0.142593 1.06703,-0.122224 v 32.625445 c 0.02188,0.075 0.89731,0.375 2.626276,0.90001 1.728965,0.52501 4.180158,0.82501 7.353577,0.90001 3.633012,-0.0187 6.215508,-0.71251 7.747486,-2.08128 1.531977,-1.36877 2.276078,-3.30004 2.232305,-5.79383 z"
       style="fill:#e1547a;fill-opacity:1;fill-rule:evenodd;stroke:none"
       id="path831"
       inkscape:connector-curvature="0" /><path
       d="m 96.676305,92.954223 c 0.0042,-3.167758 1.193642,-5.71994 3.568185,-7.656544 2.37454,-1.936606 5.90876,-2.932041 10.60264,-2.986308 1.61793,0.05313 3.2593,0.265629 4.92412,0.637509 1.66482,0.37188 3.09985,0.584382 4.30509,0.637509 0.66319,0.0016 1.41499,-0.05781 2.25541,-0.178128 0.84042,-0.120314 1.61061,-0.310941 2.31056,-0.571882 v 26.548081 c 0.0161,3.67416 -1.08256,6.54517 -3.29595,8.61302 -2.21339,2.06786 -5.6381,3.11954 -10.27412,3.15504 -3.99359,-0.0326 -7.16524,-0.71572 -9.51493,-2.0495 -2.349701,-1.33377 -3.551696,-3.12283 -3.605987,-5.36718 -0.0047,-0.68459 0.116491,-1.41607 0.363453,-2.19444 0.246962,-0.77838 0.647693,-1.54737 1.202193,-2.30699 0.02657,2.39607 1.042661,4.29979 3.048261,5.71116 2.0056,1.41136 4.84127,2.13345 8.50701,2.16627 3.7095,-0.0406 6.23254,-0.7471 7.56911,-2.11938 1.33657,-1.37229 1.965,-3.1666 1.88528,-5.38293 -0.7421,-1.83047 -2.34308,-3.11642 -4.80292,-3.85787 -2.45985,-0.74145 -5.15284,-1.43425 -8.07896,-2.0784 -2.92613,-0.64415 -5.45966,-1.73551 -7.6006,-3.27409 -2.140942,-1.538574 -3.263557,-4.020224 -3.367845,-7.444947 z m 4.265685,-0.07502 c 0.0903,2.400959 1.03996,4.154252 2.84904,5.259879 1.80909,1.105626 3.9359,1.900018 6.38046,2.383178 2.44456,0.48316 4.66518,0.99153 6.66187,1.52509 1.99669,0.53357 3.22778,1.42878 3.69327,2.68563 V 88.077673 c -0.0313,-0.08128 -0.85044,-0.40638 -2.45751,-0.97531 -1.60706,-0.568932 -3.8144,-0.894035 -6.62202,-0.975311 -3.68773,0.03751 -6.36716,0.675215 -8.03829,1.913109 -1.67112,1.237895 -2.4934,2.850909 -2.46682,4.839042 z"
       style="fill:#e1547a;fill-opacity:1;fill-rule:evenodd;stroke:none"
       id="path833"
       inkscape:connector-curvature="0" /><path
       d="m 159.60215,85.98642 c 0.0508,-1.079645 0.40649,-1.853729 1.06703,-2.322254 0.66054,-0.468525 1.32108,-0.753713 1.98163,-0.855567 0.66054,-0.101852 1.01621,-0.142593 1.06703,-0.122224 v 27.675375 c -0.0429,2.80005 -0.69783,4.98757 -1.96468,6.56255 -1.26684,1.57498 -2.88803,2.67934 -4.86355,3.31308 -1.97552,0.63375 -4.04777,0.93879 -6.21674,0.91514 -2.29178,-0.0687 -4.3677,-0.34375 -6.22777,-0.82501 -1.86006,-0.48126 -3.71036,-0.75626 -5.5509,-0.82501 -0.28997,-0.0125 -0.70154,0.05 -1.2347,0.1875 -0.53317,0.1375 -1.24406,0.42501 -2.13267,0.86251 V 85.98642 c 0.0508,-1.079645 0.40649,-1.853729 1.06703,-2.322254 0.66054,-0.468525 1.32108,-0.753713 1.98162,-0.855567 0.66054,-0.101852 1.01622,-0.142593 1.06703,-0.122224 v 32.625445 c 0.0219,0.075 0.89731,0.375 2.62628,0.90001 1.72896,0.52501 4.18015,0.82501 7.35357,0.90001 3.63302,-0.0187 6.21551,-0.71251 7.74749,-2.08128 1.53198,-1.36877 2.27608,-3.30004 2.2323,-5.79383 z"
       style="fill:#e1547a;fill-opacity:1;fill-rule:evenodd;stroke:none"
       id="path835"
       inkscape:connector-curvature="0" /><path
       d="m 0,21.080865 c 0.053588,-1.079463 0.428708,-1.853418 1.125361,-2.321864 0.696652,-0.468445 1.393306,-0.753586 2.08996,-0.855423 0.696652,-0.101836 1.071774,-0.14257 1.125363,-0.122204 V 68.023618 C 4.287095,69.102956 3.911973,69.87682 3.215321,70.345212 2.518667,70.813603 1.822013,71.098711 1.125361,71.200535 0.428708,71.302359 0.053588,71.343089 0,71.322724 Z"
       style="fill:#e1547a;fill-opacity:1;fill-rule:evenodd;stroke:none"
       id="path837"
       inkscape:connector-curvature="0" /><path
       d="m 15.975216,28.654733 c -0.0094,-3.101084 0.477137,-5.635068 1.459749,-7.601951 0.982612,-1.966884 2.517932,-2.982352 4.605958,-3.046405 0.975013,0.05937 1.706273,0.296831 2.193779,0.712391 0.487507,0.415561 0.73126,0.653023 0.73126,0.712389 -1.77815,0.10467 -3.040666,1.245119 -3.787551,3.421347 -0.746886,2.176226 -1.10939,4.760203 -1.087515,7.751928 v 40.343772 c -0.04527,1.055857 -0.378772,1.818707 -1.000513,2.288553 -0.621741,0.469846 -1.26011,0.760553 -1.915108,0.872122 -0.654998,0.111568 -1.055018,0.157864 -1.200059,0.138885 z"
       style="fill:#e1547a;fill-opacity:1;fill-rule:evenodd;stroke:none"
       id="path839"
       inkscape:connector-curvature="0" /><path
       d="m 61.491455,44.854507 c 0.01298,3.667911 -1.229444,6.513911 -3.727256,8.538003 -2.497812,2.024091 -6.32887,3.050761 -11.493175,3.080013 -5.200265,-0.02925 -9.053232,-1.055923 -11.558901,-3.080014 -2.50567,-2.024092 -3.751239,-4.870091 -3.736705,-8.538002 V 29.249535 c -0.01453,-3.700739 1.231035,-6.556143 3.736705,-8.566209 2.505669,-2.010066 6.358636,-3.027383 11.558901,-3.051953 5.164306,0.02457 8.995363,1.041885 11.493175,3.051953 2.497812,2.010067 3.740231,4.86547 3.727256,8.566209 z m -4.11568,-14.479613 c 0.114117,-2.833716 -0.583041,-5.025038 -2.091476,-6.573969 -1.508437,-1.548931 -4.512861,-2.333556 -9.013275,-2.353875 -4.536373,0.02032 -7.562707,0.804943 -9.079,2.353874 -1.516294,1.548931 -2.216601,3.740254 -2.100925,6.57397 v 13.354254 c -0.115676,2.797761 0.584633,4.967182 2.100925,6.508262 1.516292,1.54108 4.542626,2.322558 9.079,2.344435 4.500414,-0.02188 7.504838,-0.803355 9.013275,-2.344435 1.508436,-1.54108 2.205594,-3.710501 2.091476,-6.508262 z"
       style="fill:#e1547a;fill-opacity:1;fill-rule:evenodd;stroke:none"
       id="path841"
       inkscape:connector-curvature="0" /><path
       d="m 76.116653,14.331327 c -0.0343,3.182136 -0.171488,5.320278 -0.41157,6.414431 -0.240083,1.094152 -0.377273,1.603003 -0.411569,1.526555 -0.116492,-0.03368 0.191918,-0.423632 0.925228,-1.169863 0.733311,-0.746232 1.991833,-1.496631 3.775565,-2.251198 1.783731,-0.754567 4.192979,-1.161193 7.227746,-1.219879 2.215288,-0.0047 4.303283,0.395456 6.263983,1.200607 1.9607,0.805151 3.558724,2.043729 4.794073,3.715734 1.235348,1.672004 1.872641,3.805912 1.911871,6.401726 v 16.055115 c 0.002,3.628835 -1.218536,6.44045 -3.661717,8.434844 -2.443182,1.994393 -6.121198,3.005435 -11.034049,3.033124 -2.29645,-0.0625 -4.212966,-0.312505 -5.749543,-0.750011 -1.536578,-0.437506 -2.871304,-0.687509 -4.004174,-0.75001 -0.48328,-0.0094 -1.032038,0.04688 -1.646271,0.168753 -0.614234,0.121876 -1.312653,0.36563 -2.095254,0.731259 V 3.981188 c 0.04111,-1.30048 0.357984,-2.2329 0.950623,-2.79726 0.59264,-0.56436 1.214379,-0.907883 1.86522,-1.03057 0.650842,-0.122685 1.084121,-0.171761 1.299838,-0.147224 v 4.950067 z m 0,36.375044 c 0.05315,0.07814 0.922324,0.390723 2.607519,0.937737 1.685194,0.547013 3.867505,0.859592 6.546933,0.937737 4.159832,-0.0016 7.020587,-0.729895 8.582267,-2.18501 1.561678,-1.455115 2.302653,-3.627661 2.222925,-6.517639 V 30.074798 c -0.05159,-2.952503 -0.905115,-5.131322 -2.560589,-6.536457 -1.655474,-1.405136 -3.803384,-2.102232 -6.443728,-2.091291 -2.820121,0.03751 -5.321337,0.768995 -7.503649,2.194449 -2.182312,1.425454 -3.332871,3.319807 -3.451678,5.68306 z"
       style="fill:#e1547a;fill-opacity:1;fill-rule:evenodd;stroke:none"
       id="path843"
       inkscape:connector-curvature="0" /><path
       d="m 110.7015,21.305616 c 0.0508,-1.07938 0.40648,-1.853276 1.06702,-2.321686 0.66054,-0.468411 1.32109,-0.753531 1.98163,-0.855359 0.66054,-0.101828 1.01621,-0.142559 1.06703,-0.122194 v 34.791974 c -0.0425,1.032168 -0.36492,1.783841 -0.96726,2.255016 -0.60234,0.471176 -1.22962,0.767393 -1.88185,0.888651 -0.65223,0.121256 -1.07442,0.17309 -1.26657,0.155501 z m -0.30001,43.649626 c 0.006,-0.237072 0.0874,-0.455427 0.24354,-0.655068 0.1561,-0.19964 0.34952,-0.305698 0.58028,-0.318175 h 3.89187 v 4.117565 c 0.008,0.240192 -0.0453,0.47103 -0.15923,0.692511 -0.11394,0.221482 -0.33547,0.340021 -0.66459,0.355619 h -3.89187 z"
       style="fill:#e1547a;fill-opacity:1;fill-rule:evenodd;stroke:none"
       id="path845"
       inkscape:connector-curvature="0" /><path
       d="m 125.7017,28.654733 c -0.009,-3.101084 0.47713,-5.635068 1.45975,-7.601951 0.98261,-1.966884 2.51793,-2.982352 4.60595,-3.046405 0.97502,0.05937 1.70628,0.296831 2.19378,0.712391 0.48751,0.415561 0.73126,0.653023 0.73126,0.712389 -1.77815,0.10467 -3.04066,1.245119 -3.78755,3.421347 -0.74688,2.176226 -1.10939,4.760203 -1.08751,7.751928 v 40.343772 c -0.0453,1.055857 -0.37877,1.818707 -1.00052,2.288553 -0.62174,0.469846 -1.26011,0.760553 -1.9151,0.872122 -0.655,0.111568 -1.05502,0.157864 -1.20006,0.138885 z"
       style="fill:#e1547a;fill-opacity:1;fill-rule:evenodd;stroke:none"
       id="path847"
       inkscape:connector-curvature="0" /><path
       d="m 152.46768,40.281679 c 2.52457,0.14436 4.7672,1.221511 6.72787,3.231452 1.96068,2.009942 3.64218,4.236423 5.04451,6.679447 1.40234,2.443023 2.52828,4.386336 3.37783,5.829941 -0.0125,0.0031 -0.1,0.01563 -0.26251,0.0375 -0.1625,0.02188 -0.325,0.03437 -0.4875,0.0375 -2.09847,-0.04373 -3.50786,-0.368546 -4.22818,-0.974455 -0.72033,-0.605909 -1.21096,-1.230553 -1.4719,-1.87393 -2.0219,-3.888345 -4.07193,-6.763867 -6.15008,-8.626564 -2.07816,-1.862698 -4.87819,-2.787779 -8.40012,-2.775244 -0.3125,0 -0.66251,0 -1.05001,0 v 29.100393 c -0.0508,1.079645 -0.40649,1.85373 -1.06703,2.322255 -0.66054,0.468525 -1.32108,0.753714 -1.98162,0.855567 -0.66054,0.101854 -1.01622,0.142595 -1.06703,0.122224 V 21.306423 c 0.0508,-1.079645 0.40649,-1.853729 1.06703,-2.322254 0.66054,-0.468525 1.32108,-0.753714 1.98162,-0.855568 0.66054,-0.101851 1.01622,-0.142593 1.06703,-0.122223 v 20.100273 c 5.00143,-0.35899 8.70969,-1.553537 11.12476,-3.583643 2.41507,-2.030106 4.12877,-4.316855 5.14108,-6.86025 1.01232,-2.543394 1.91507,-4.764517 2.70824,-6.663371 0.79318,-1.898854 2.06859,-2.896523 3.82623,-2.993009 0.37657,0.0125 0.78595,0.0625 1.22814,0.150003 0.44219,0.0875 0.68282,0.137502 0.72188,0.150001 -0.56758,0.894348 -1.19493,2.386947 -1.88205,4.477796 -0.68712,2.090848 -1.62854,4.363926 -2.82426,6.819232 -1.19572,2.455305 -2.84027,4.67682 -4.93366,6.664543 -2.09339,1.987722 -4.83014,3.325631 -8.21027,4.013726 z"
       style="fill:#e1547a;fill-opacity:1;fill-rule:evenodd;stroke:none"
       id="path849"
       inkscape:connector-curvature="0" /><path
       d="m 186.96815,40.281679 c 2.52457,0.14436 4.76719,1.221511 6.72787,3.231452 1.96067,2.009942 3.64218,4.236423 5.04451,6.679447 1.40233,2.443023 2.52827,4.386336 3.37782,5.829941 -0.0125,0.0031 -0.1,0.01563 -0.2625,0.0375 -0.1625,0.02188 -0.325,0.03437 -0.48751,0.0375 -2.09846,-0.04373 -3.50786,-0.368546 -4.22818,-0.974455 -0.72032,-0.605909 -1.21095,-1.230553 -1.47189,-1.87393 -2.02191,-3.888345 -4.07193,-6.763867 -6.15009,-8.626564 -2.07815,-1.862698 -4.87819,-2.787779 -8.40011,-2.775244 -0.3125,0 -0.66251,0 -1.05001,0 v 29.100393 c -0.0508,1.079645 -0.40649,1.85373 -1.06703,2.322255 -0.66054,0.468525 -1.32109,0.753714 -1.98163,0.855567 -0.66054,0.101854 -1.01621,0.142595 -1.06702,0.122224 V 21.306423 c 0.0508,-1.079645 0.40648,-1.853729 1.06702,-2.322254 0.66054,-0.468525 1.32109,-0.753714 1.98163,-0.855568 0.66054,-0.101851 1.01621,-0.142593 1.06703,-0.122223 v 20.100273 c 5.00143,-0.35899 8.70968,-1.553537 11.12476,-3.583643 2.41507,-2.030106 4.12876,-4.316855 5.14108,-6.86025 1.01232,-2.543394 1.91506,-4.764517 2.70824,-6.663371 0.79317,-1.898854 2.06858,-2.896523 3.82622,-2.993009 0.37657,0.0125 0.78595,0.0625 1.22815,0.150003 0.44219,0.0875 0.68282,0.137502 0.72188,0.150001 -0.56759,0.894348 -1.19494,2.386947 -1.88206,4.477796 -0.68712,2.090848 -1.62853,4.363926 -2.82425,6.819232 -1.19572,2.455305 -2.84028,4.67682 -4.93366,6.664543 -2.09339,1.987722 -4.83015,3.325631 -8.21027,4.013726 z"
       style="fill:#e1547a;fill-opacity:1;fill-rule:evenodd;stroke:none"
       id="path851"
       inkscape:connector-curvature="0" /><path
       d="m 214.56852,52.797473 c -0.0508,1.056032 -0.40649,1.819006 -1.06703,2.28892 -0.66054,0.469915 -1.32108,0.760659 -1.98162,0.872235 -0.66054,0.111576 -1.01622,0.157872 -1.06703,0.138891 V 28.422144 c 0.0573,-2.800158 0.8002,-4.987723 2.2287,-6.562696 1.42851,-1.574974 3.19885,-2.679311 5.31102,-3.313011 2.11218,-0.6337 4.22241,-0.938721 6.33071,-0.915064 1.83058,0.05313 3.64708,0.265629 5.44949,0.637509 1.80241,0.371879 3.41249,0.584382 4.83024,0.637508 0.70621,0.0063 1.38904,-0.04375 2.04848,-0.150002 0.65945,-0.106252 1.32357,-0.306253 1.99237,-0.600008 v 34.641093 c -0.0508,1.079644 -0.40649,1.85373 -1.06703,2.322255 -0.66054,0.468525 -1.32108,0.753713 -1.98163,0.855567 -0.66054,0.101854 -1.01621,0.142594 -1.06702,0.122224 V 23.322075 c -0.0188,-0.07813 -0.88167,-0.390631 -2.58873,-0.937513 -1.70706,-0.546882 -4.14574,-0.859387 -7.31603,-0.937512 -3.00609,0.03796 -5.23125,0.50371 -6.67547,1.397241 -1.44422,0.893531 -2.37986,1.987064 -2.80692,3.2806 -0.42706,1.293536 -0.61789,2.559294 -0.5725,3.797273 z"
       style="fill:#e1547a;fill-opacity:1;fill-rule:evenodd;stroke:none"
       id="path853"
       inkscape:connector-curvature="0" /><path
       d="m 217.61253,94.377961 c -0.65381,2.621145 -1.86261,5.351086 -2.8489,7.270699 -0.89319,1.73763 -1.88,3.42552 -2.95606,5.05623 l -0.39064,0.59198 -0.009,-0.70919 c -0.0287,-2.1767 -0.22021,-4.34819 -0.57283,-6.49633 -0.7507,-4.586136 -2.11042,-9.171792 -3.86603,-13.471887 -0.32779,-0.800495 -0.66955,-1.595199 -1.02512,-2.383746 -0.45408,-1.010257 -0.77055,-1.636551 -1.30465,-2.660372 0.86019,0.221442 1.39382,0.368671 2.16318,0.717976 0.59418,0.269621 1.16897,0.58008 1.72023,0.929148 0.91684,0.58238 1.7864,1.236038 2.60062,1.954915 0.6701,0.586126 1.31433,1.201168 1.93089,1.843376 1.79666,1.875816 3.39142,3.893583 4.8216,6.061266 -0.065,0.436262 -0.15278,0.86883 -0.26293,1.295935 z"
       style="fill:#e1547a;fill-opacity:1;fill-rule:evenodd;stroke:none"
       id="path855"
       inkscape:connector-curvature="0" /><path
       d="m 272.13039,201.41767 c 0.0955,0.44885 0.17884,0.9002 0.24988,1.35357 0.0746,0.45968 0.11243,0.7906 0.14286,1.25984 -0.25251,0.46107 -0.52024,0.91365 -0.80274,1.35699 -1.51364,2.3884 -3.31228,4.68661 -5.23318,6.76938 -1.27838,1.38669 -2.63451,2.69965 -4.06183,3.9325 l -0.58488,0.5052 c 0.43997,-1.38095 0.64625,-2.04218 0.97968,-3.34558 1.1658,-4.55715 1.92707,-9.27337 2.17754,-13.9686 0.15145,-2.83892 0.10361,-5.5745 -0.18104,-8.37169 -0.18067,-1.77985 -0.47652,-3.54611 -0.88568,-5.28769 -0.48386,-2.06157 -1.10074,-3.86642 -1.94335,-5.8142 l 0.3917,-0.12741 c 1.56365,2.47438 3.02113,5.01428 4.36847,7.61279 2.18887,4.22742 4.39173,9.44179 5.38257,14.1249 z"
       style="fill:#e1547a;fill-opacity:1;fill-rule:evenodd;stroke:none"
       id="path857"
       inkscape:connector-curvature="0" /><path
       d="m 206.13463,157.03511 c -35.51716,20.23232 -41.26233,36.90173 -41.26233,36.90173 -11.0791,-46.37764 18.25699,-60.73989 18.25699,-60.73989 32.14167,-21.24601 34.58023,-40.385267 34.58023,-40.385267 23.70285,43.552597 -11.57489,64.223427 -11.57489,64.223427 z"
       style="fill:#6b5c9e;fill-opacity:1;fill-rule:evenodd;stroke:none"
       id="path859"
       inkscape:connector-curvature="0" /><path
       d="m 272.27877,204.41866 c 0,0 -0.73788,-18.50681 -30.34979,-49.5957 0,0 -29.23853,-31.46106 7.77254,-68.105151 0,0 -3.3326,19.987661 22.57725,51.079171 0,0 25.16804,23.31767 0,66.62168 z"
       style="fill:#6b5c9e;fill-opacity:1;fill-rule:evenodd;stroke:none"
       id="path861"
       inkscape:connector-curvature="0" /><path
       d="m 241.69734,199.44128 c 0,-7.56564 -6.13422,-13.69992 -13.6986,-13.69992 -7.5669,0 -13.69986,6.13428 -13.69986,13.69992 0,7.56564 6.13296,13.69986 13.69986,13.69986 7.56438,0 13.6986,-6.13422 13.6986,-13.69986 z"
       style="fill:#6b5c9e;fill-opacity:1;fill-rule:evenodd;stroke:none"
       id="path863"
       inkscape:connector-curvature="0" /></g></svg>